#!OML:ASF H:\Terrain\Patient Classification 1\Walking\steve\steve.ASF
:FULLY-SPECIFIED
:DEGREES
278
root 9.87787 16.7822 36.2237 3.09162 -7.64976 3.48105
lowerback 2.0438 3.13644 -4.43973
upperback -2.45652 3.96743 -1.48009
thorax -3.87946 2.07473 0.731643
lowerneck -9.34953 -3.40355 -7.28549
upperneck 19.3037 -4.86855 7.07026
head 7.83195 -2.20827 3.08604
rclavicle 2.38262e-014 -2.04748e-014
rhumerus -42.9752 -3.37362 -88.3289
rradius 42.953
rwrist -12.1168
rhand -24.0417 -43.7266
rfingers 7.12502
rthumb 2.43708 -73.6925
lclavicle 2.38262e-014 -2.04748e-014
lhumerus -29.6401 3.53992 83.9151
lradius 23.5418
lwrist 3.79085
lhand -24.9388 -15.3859
lfingers 7.12502
lthumb 1.57068 14.5881
rfemur -29.954 3.77266 17.6556
rtibia 73.1992
rfoot -7.11719 6.04608
rtoes -7.58202
lfemur -17.3702 0.529004 -28.3089
ltibia 33.6643
lfoot -18.7345 -2.47263
ltoes 5.04379
279
root 9.89031 16.801 36.482 2.61269 -7.2031 3.75078
lowerback 1.00062 2.97732 -4.39683
upperback -1.57763 3.84708 -1.55887
thorax -2.36627 1.98025 0.730417
lowerneck -9.99831 -3.36901 -6.94606
upperneck 19.4222 -4.81847 6.93691
head 7.97342 -2.15799 2.98318
rclavicle -2.14936e-015 -1.47101e-014
rhumerus -42.4197 -4.1636 -87.9773
rradius 41.2946
rwrist -12.3735
rhand -24.4402 -44.8572
rfingers 7.12502
rthumb 2.05224 -74.827
lclavicle -2.14936e-015 -1.47101e-014
lhumerus -27.6767 2.08865 84.8305
lradius 25.0996
lwrist 6.15791
lhand -25.6607 -15.1234
lfingers 7.12502
lthumb 0.873417 14.8545
rfemur -30.2773 3.08672 17.4545
rtibia 71.9167
rfoot -8.87547 6.20244
rtoes -8.61645
lfemur -15.6837 0.461634 -28.8262
ltibia 33.5827
lfoot -19.1827 -3.29026
ltoes 6.23525
280
root 9.88674 16.802 36.673 2.7868 -7.04278 3.3282
lowerback 3.09152 2.78081 -5.46689
upperback -3.16448 3.39847 -0.444609
thorax -5.32032 1.88055 2.32629
lowerneck -10.9439 -3.6483 -8.25049
upperneck 22.7948 -4.89837 6.22072
head 9.32302 -2.35111 2.97734
rclavicle 2.04624e-014 2.43511e-014
rhumerus -45.3281 -3.86845 -86.1003
rradius 39.1826
rwrist -11.8305
rhand -24.9573 -42.2949
rfingers 7.12502
rthumb 1.55281 -72.269
lclavicle 2.04624e-014 2.43511e-014
lhumerus -29.3803 2.27088 86.1578
lradius 27.0855
lwrist 8.34673
lhand -25.9174 -15.7561
lfingers 7.12502
lthumb 0.625497 14.2227
rfemur -31.7654 3.28881 18.2079
rtibia 70.5139
rfoot -10.7815 6.16586
rtoes -9.52121
lfemur -14.8302 0.64035 -28.4623
ltibia 32.991
lfoot -19.3465 -3.15497
ltoes 3.73975
281
root 9.86606 16.7994 36.8391 3.25077 -6.78993 2.41788
lowerback 1.68028 2.77954 -3.79055
upperback -2.12337 3.56309 -0.886646
thorax -3.30385 1.8543 1.03894
lowerneck -12.6641 -4.07901 -8.03866
upperneck 22.7895 -5.5596 6.80357
head 9.71195 -2.54516 3.04262
rclavicle -1.57149e-014 9.64106e-015
rhumerus -43.5568 -6.67474 -85.8349
rradius 36.7148
rwrist -10.5035
rhand -24.3752 -42.2562
rfingers 7.12502
rthumb 2.11503 -72.2255
lclavicle -1.57149e-014 9.64106e-015
lhumerus -25.9134 -0.457856 86.1599
lradius 28.273
lwrist 11.2624
lhand -25.9535 -16.4272
lfingers 7.12502
lthumb 0.590656 13.5518
rfemur -33.5161 3.88783 19.5422
rtibia 68.8232
rfoot -12.6473 5.88892
rtoes -8.51046
lfemur -14.3544 0.911047 -27.4417
ltibia 32.3431
lfoot -19.613 -3.14024
ltoes 2.69536
282
root 9.87925 16.8074 37.1535 2.28929 -5.81112 4.18253
lowerback 2.29859 2.60457 -5.05687
upperback -2.52713 3.21191 -1.5326
thorax -4.09465 1.71972 1.05079
lowerneck -11.7171 -4.08751 -7.85051
upperneck 23.3005 -5.7411 6.90858
head 9.72387 -2.62147 3.04462
rclavicle -3.92289e-015 2.5842e-015
rhumerus -45.8596 -8.08729 -84.8747
rradius 35.4646
rwrist -9.85647
rhand -22.4645 -45.7267
rfingers 7.12502
rthumb 3.96018 -75.6696
lclavicle -3.92289e-015 2.5842e-015
lhumerus -26.5164 -2.97129 86.7074
lradius 30.1177
lwrist 13.8688
lhand -25.9424 -15.9908
lfingers 7.12502
lthumb 0.601347 13.9881
rfemur -32.7287 2.47741 17.5783
rtibia 67.0486
rfoot -14.872 5.67226
rtoes -7.54082
lfemur -11.3747 1.18154 -29.5355
ltibia 31.3396
lfoot -19.9447 -4.32636
ltoes 4.05566
283
root 9.87144 16.7966 37.375 2.07543 -4.8011 5.14129
lowerback 2.40617 2.38039 -5.503
upperback -2.60204 2.86201 -2.09566
thorax -4.20904 1.55257 0.732851
lowerneck -10.9575 -3.95587 -7.44804
upperneck 23.1367 -5.72319 7.06537
head 9.50998 -2.57792 3.04233
rclavicle 2.31957e-014 -1.53064e-014
rhumerus -46.774 -9.63062 -84.1305
rradius 33.6611
rwrist -9.165
rhand -22.4743 -45.548
rfingers 7.12502
rthumb 3.95075 -75.4912
lclavicle 2.31957e-014 -1.53064e-014
lhumerus -25.9633 -5.41644 86.9542
lradius 32.2172
lwrist 16.3148
lhand -26.0378 -14.8216
lfingers 7.12502
lthumb 0.50921 15.1575
rfemur -33.2431 1.55185 16.685
rtibia 65.1353
rfoot -16.1192 4.25971
rtoes -11.7077
lfemur -9.84423 1.42966 -30.536
ltibia 30.5321
lfoot -19.1949 -5.14612
ltoes 4.22179
284
root 9.88742 16.7997 37.6371 1.35329 -5.33735 5.15805
lowerback 0.780096 2.36752 -6.02485
upperback -1.26612 3.03233 -1.43695
thorax -1.97864 1.58719 1.8075
lowerneck -11.243 -3.63979 -7.36401
upperneck 22.3601 -5.06832 6.39905
head 9.21938 -2.32945 2.86059
rclavicle -1.29948e-015 -9.39258e-015
rhumerus -45.5637 -10.0497 -82.5449
rradius 31.4656
rwrist -8.21286
rhand -24.4384 -42.0399
rfingers 7.12502
rthumb 2.05397 -72.0097
lclavicle -1.29948e-015 -9.39258e-015
lhumerus -23.6293 -5.50054 87.72
lradius 33.9435
lwrist 17.8608
lhand -25.8295 -14.1868
lfingers 7.12502
lthumb 0.710463 15.7918
rfemur -33.1985 2.20995 16.7322
rtibia 62.7931
rfoot -16.5881 3.605
rtoes -16.2582
lfemur -7.57324 1.72011 -30.7575
ltibia 29.6442
lfoot -19.6057 -4.49363
ltoes 2.807
